<svg width="200" height="110" viewBox="0 0 200 110" fill="none" xmlns="http://www.w3.org/2000/svg">
<g clip-path="url(#clip0_285_745)">
<path d="M30.9044 18.2705C48.6147 8.66369 72.9791 2.72862 99.9873 2.72862C126.995 2.72862 151.41 8.66369 169.07 18.2705C186.477 27.7389 197.242 40.7282 197.242 55C197.242 69.2718 186.477 82.2611 169.07 91.7295C151.36 101.336 126.995 107.271 99.9873 107.271C72.9791 107.271 48.5641 101.336 30.9044 91.7295C13.4977 82.2611 2.73238 69.2718 2.73238 55C2.73238 40.7282 13.4977 27.7389 30.9044 18.2705ZM99.9873 0C72.5363 0 47.6533 6.07339 29.6014 15.8813C11.3219 25.8276 0.0505371 39.6594 0.0505371 55C0.0505371 70.3406 11.3598 84.1724 29.6521 94.1186C47.6913 103.927 72.5869 110 100.038 110C127.489 110 152.372 103.927 170.424 94.1186C188.653 84.1724 199.924 70.3406 199.924 55C199.924 39.6594 188.615 25.8276 170.323 15.8813C152.283 6.07339 127.388 0 99.9367 0" fill="#B88A57"/>
<path fill-rule="evenodd" clip-rule="evenodd" d="M28.8425 54.9114L31.2967 48.071H34.4719L30.6768 58.3694C30.274 59.615 29.6624 60.7841 28.8678 61.8273C28.5338 62.2227 28.1086 62.5321 27.6285 62.7291C27.1484 62.9261 26.6275 63.005 26.1101 62.959C25.6421 62.9212 25.1798 62.8326 24.7312 62.6949V60.2932C24.9907 60.3675 25.2583 60.4097 25.5282 60.419C25.7268 60.4321 25.9259 60.4043 26.1132 60.3372C26.3004 60.2701 26.4716 60.1652 26.6161 60.0292C26.955 59.6005 27.2044 59.1088 27.3498 58.5831L22.062 48.1339H25.4396L28.8425 54.9114ZM39.8482 55.4018H41.265C41.9692 55.449 42.6677 55.2487 43.2385 54.836C43.4867 54.6065 43.6802 54.3249 43.8049 54.0117C43.9297 53.6984 43.9825 53.3614 43.9595 53.0253C44.027 51.3487 43.1246 50.5104 41.2524 50.5104H39.8609L39.8482 55.4018ZM39.8482 57.9167V62.6446H36.6351V48.071H41.1385C42.8131 47.9716 44.4813 48.3513 45.9456 49.165C46.5417 49.6148 47.0068 50.2138 47.2936 50.9009C47.5803 51.588 47.6783 52.3385 47.5775 53.0756C47.5775 56.2778 45.5914 57.879 41.6193 57.879L39.8482 57.9167ZM58.8236 50.523H53.1816V62.6446H49.981V48.071H58.8362L58.8236 50.523ZM66.5528 54.9366L69.007 48.0962H72.1569L68.3618 58.3945C67.9583 59.6399 67.3468 60.8089 66.5528 61.8524C66.2188 62.2478 65.7936 62.5572 65.3135 62.7542C64.8334 62.9513 64.3125 63.0301 63.7951 62.9841C63.3271 62.9465 62.8647 62.858 62.4162 62.7201V60.3184C62.6756 60.3928 62.9433 60.435 63.2132 60.4441C63.4227 60.4546 63.6319 60.4195 63.8264 60.3413C64.0208 60.2632 64.1958 60.1437 64.3391 59.9914C64.6779 59.5627 64.9274 59.0711 65.0728 58.5454L59.785 48.0962H63.1626L66.5528 54.9366ZM80.0506 50.4978V62.6321H76.8501V50.4727H73.1183V48.071H83.7698V50.4727L80.0506 50.4978ZM89.1208 55.9551V62.6321H85.9203V48.071H89.1208V53.5031H94.4466V48.071H97.6471V62.6069H94.4466V55.9299L89.1208 55.9551ZM110.108 50.4978H104.263V53.9181H109.159V56.4329H104.263V60.2052H110.841V62.5692H101.05V48.071H110.108V50.4978ZM122.049 51.1014V58.1053C122.517 58.1841 122.997 58.1644 123.456 58.0475C123.916 57.9305 124.346 57.7189 124.719 57.4263C125.364 56.6263 125.665 55.6043 125.553 54.5845C125.553 52.1283 124.385 50.9673 122.049 51.1014ZM118.899 51.1014C116.673 50.9002 115.56 52.0529 115.56 54.5593C115.453 55.5709 115.733 56.5854 116.344 57.4011C116.691 57.6897 117.097 57.8998 117.534 58.017C117.971 58.1343 118.428 58.1558 118.874 58.0802L118.899 51.1014ZM118.899 62.5943V60.4567H118.431C117.503 60.479 116.576 60.356 115.686 60.092C114.69 59.704 113.853 58.9958 113.308 58.0802C112.67 57.022 112.35 55.8049 112.385 54.5719C112.393 53.674 112.56 52.7845 112.878 51.9439C113.259 50.9805 113.942 50.1648 114.826 49.6176C116.056 48.9031 117.482 48.5949 118.899 48.7374V47.0273H122.049V48.7123C123.503 48.5671 124.966 48.8747 126.237 49.5925C127.132 50.1334 127.825 50.9503 128.21 51.9187C128.528 52.7594 128.695 53.6488 128.703 54.5468C128.733 55.7809 128.409 56.9979 127.767 58.055C127.198 58.9803 126.321 59.6786 125.288 60.0292C124.376 60.2929 123.429 60.4159 122.479 60.3938H122.011V62.5315L118.899 62.5943ZM136.951 50.4601V62.5943H133.751V50.4727H130.019V48.071H140.67V50.4727L136.951 50.4601ZM151.891 50.4601H146.047V53.8803H150.942V56.3952H146.047V60.1675H152.625V62.5315H142.834V48.071H151.853L151.891 50.4601ZM163.884 50.4601H158.178V62.5818H154.978V48.071H163.833L163.884 50.4601ZM170.133 57.0994H173.675L171.853 52.5223L170.133 57.0994ZM169.184 59.6142L168.058 62.6069H164.845L170.361 48.071H173.359L178.975 62.6069H175.762L174.497 59.5513L169.184 59.6142ZM182.011 51.3906L180.595 49.3913C182.08 48.2788 183.896 47.6903 185.756 47.7189C186.763 47.6696 187.768 47.8547 188.691 48.2596C189.379 48.5655 189.966 49.0579 190.386 49.6805C190.735 50.2235 190.956 50.8384 191.031 51.4786C191.072 51.975 191.016 52.4746 190.867 52.9498C190.712 53.4383 190.423 53.8739 190.032 54.2073C189.596 54.5747 189.066 54.8142 188.501 54.8989V55.1252C189.298 55.1813 190.048 55.5205 190.614 56.0808C190.911 56.3766 191.143 56.7305 191.295 57.1201C191.448 57.5097 191.517 57.9266 191.499 58.3442C191.497 59.1214 191.268 59.8813 190.841 60.5321C190.348 61.2647 189.661 61.8478 188.855 62.2171C187.84 62.6851 186.736 62.9296 185.617 62.9338C183.522 62.9532 181.494 62.2007 179.924 60.8214L181.455 58.8723C181.52 58.8807 181.581 58.9068 181.632 58.9478L181.784 59.0735L182.239 59.3627L182.884 59.7525C183.734 60.2 184.699 60.384 185.655 60.2807C186.304 60.2234 186.908 59.9275 187.35 59.4508C187.542 59.2487 187.69 59.009 187.783 58.747C187.877 58.485 187.915 58.2065 187.894 57.9293C187.894 56.8311 187.147 56.282 185.655 56.282H184.238V53.8426H185.402C185.728 53.8842 186.059 53.8515 186.37 53.7469C186.681 53.6423 186.964 53.4686 187.198 53.239C187.34 53.0647 187.444 52.8627 187.502 52.6462C187.561 52.4297 187.574 52.2033 187.54 51.9816C187.506 51.7468 187.423 51.5215 187.296 51.3202C187.17 51.1189 187.003 50.9459 186.806 50.8122C186.308 50.487 185.718 50.3283 185.123 50.3595C184.008 50.4198 182.931 50.7853 182.011 51.4158M20.5946 49.7811L19.0133 51.6798C18.5747 51.2335 18.0421 50.8892 17.4537 50.6718C16.8653 50.4544 16.2358 50.3692 15.6104 50.4224C15.1145 50.5001 14.638 50.6708 14.2062 50.9254C13.6196 51.2918 13.1536 51.8206 12.8653 52.4469C12.4438 53.3598 12.2527 54.3612 12.3087 55.3641C12.2126 56.6435 12.5905 57.9136 13.3713 58.9352C13.9458 59.59 14.7258 60.0331 15.5851 60.1926C16.2955 60.2591 17.0109 60.1384 17.6594 59.8426C18.3078 59.5468 18.8665 59.0863 19.279 58.5077L21.0373 60.0543C20.3788 60.9556 19.5181 61.6919 18.5233 62.2049C17.5286 62.7178 16.4273 62.9932 15.3068 63.0093C14.0792 63.0276 12.8719 62.696 11.828 62.0536C10.7829 61.3907 9.94582 60.4497 9.41179 59.3376C8.81814 58.1334 8.52318 56.8054 8.55158 55.4647C8.49528 54.4051 8.66449 53.3456 9.04813 52.3554C9.43178 51.3652 10.0212 50.4666 10.778 49.7182C12.1224 48.4683 13.8961 47.7756 15.7369 47.7818C16.6713 47.7738 17.5973 47.9579 18.4567 48.3225C19.2637 48.6661 19.9881 49.1761 20.5819 49.8188" fill="#00649D"/>
<path fill-rule="evenodd" clip-rule="evenodd" d="M152.308 68.8321C138.924 88.5989 102.036 98.3943 77.5708 101.965C73.1053 101.412 71.777 101.236 67.5771 100.582C82.4285 95.6908 116.66 86.9642 122.871 68.8321H152.308ZM116.559 19.1259C128.589 22.5083 143.428 28.1165 152.068 41.0932H116.749C116.268 40.4896 115.774 39.8357 115.268 39.2825L114.712 38.6286L113.561 37.3712L113.422 37.2077L113.131 36.8808L112.536 36.2395L112.081 35.7617L111.473 35.1329L111.322 34.8815L111.018 34.5671L110.55 34.1019L110.234 33.8001L110.082 33.6492L109.766 33.3474L109.614 33.1965L109.449 33.0456L109.133 32.7438L108.64 32.2912L106.552 30.405L106.274 30.1661L105.857 29.7889L105.578 29.55L105.3 29.3236L105.022 29.0847L104.478 28.6195L103.656 27.9404L102.846 27.2992V27.1734C107.182 24.0825 111.788 21.385 116.609 19.1133" fill="#A97654"/>
<path fill-rule="evenodd" clip-rule="evenodd" d="M155.977 68.8341C144.49 88.7267 109.297 99.8046 88.0957 103.011C92.1185 103.162 95.6099 103.451 100.303 103.451C126.401 103.451 149.74 97.8682 166.793 88.9153C178.178 82.7539 185.249 76.1398 189.487 68.7964L155.977 68.8341ZM120.898 17.0783C136.192 22.5104 147.704 28.1311 156.04 41.0952L189.424 40.9946C179.683 24.0696 156.913 15.1544 138.026 10.7031C134.674 11.621 122.327 16.3867 120.898 17.1286" fill="#B88A57"/>
<path fill-rule="evenodd" clip-rule="evenodd" d="M47.6279 68.8314C54.5476 78.7777 65.3382 85.2912 78.3047 89.1515C80.5059 89.8054 84.1871 90.5095 86.3756 90.9245C92.3791 89.1347 98.1789 86.7285 103.681 83.7445L100.354 83.8954H96.4198C91.0955 83.231 86.1322 80.8657 82.2769 77.1556C79.9049 74.828 78.0816 72.0065 76.9385 68.8943L47.6279 68.8314ZM122.467 7.98438C87.3623 13.0141 58.3933 25.0603 47.8303 41.0799H83.2509L83.3648 40.929L83.8961 40.25L84.0226 40.0866L84.4274 39.5836L85.1232 38.7411L85.2623 38.5777C85.6418 38.1376 86.0213 37.6975 86.4135 37.3202L86.5527 37.1568L86.8436 36.8298L87.4382 36.1885L87.8936 35.7107L88.5008 35.082L88.6526 34.9311L88.9562 34.6167L89.4243 34.1515L89.7405 33.8497L89.8923 33.6988L90.2086 33.397L90.3604 33.2461L90.5248 33.0953L90.7525 32.8815C92.0175 31.6241 93.447 30.3666 94.8638 29.1846L95.2054 28.908L95.4711 28.6943L96.2933 28.0152L97.1029 27.3739C97.9505 26.7075 98.7854 26.1165 99.633 25.5507C109.668 18.4791 120.77 13.0378 132.524 9.43042L132.131 9.32983C129.475 8.83943 125.199 8.4119 122.429 8.0724" fill="#00649D"/>
<path fill-rule="evenodd" clip-rule="evenodd" d="M43.9471 41.1704C56.2811 20.3474 92.3848 10.3634 111.967 7.04375C107.464 6.69167 104.377 6.51562 99.6714 6.51562C73.574 6.51562 49.9813 12.0986 32.9414 21.0515C22.9225 26.6848 14.9655 33.5378 10.4873 41.1704H43.9471ZM71.7776 90.2102C59.8991 85.3942 50.5379 79.9118 43.9471 68.947H10.5759C20.1521 85.5325 43.0616 94.7998 61.8599 99.4523C65.4652 98.4841 77.7232 94.4855 81.4424 92.964C78.165 92.3354 74.9514 91.4137 71.8409 90.2102" fill="#007EAF"/>
</g>
<defs>
<clipPath id="clip0_285_745">
<rect width="200" height="110" fill="white"/>
</clipPath>
</defs>
</svg>
