<svg width="218" height="107" viewBox="0 0 218 107" fill="none" xmlns="http://www.w3.org/2000/svg">
<path d="M68.1826 69.2734H81.7358V73.6969H75.2884V104.777H68.1826V69.2734Z" fill="#0079C2"/>
<path d="M89.7715 91.4489L90.9893 73.6969H91.3972L92.615 91.4489H89.7715ZM81.9023 104.777H88.8596L89.518 95.3485H92.8684L93.5298 104.777H100.484L96.7783 69.2734H85.6082L81.9023 104.777Z" fill="#0079C2"/>
<path d="M110.66 92.351V99.0444C110.66 99.9465 111.359 100.208 111.767 100.208C112.437 100.208 112.903 99.6555 112.903 99.0444V90.7795C112.903 89.6737 112.699 88.4514 110.048 88.4514H107.163V84.5518H110.164C112.174 84.5518 112.903 84.0861 112.903 81.9035V74.8609C112.903 74.2498 112.437 73.6969 111.767 73.6969C111.359 73.6969 110.66 73.9297 110.66 74.8609V80.6522H103.551V75.6176C103.551 73.144 103.842 69.2734 108.824 69.2734H114.709C119.691 69.2734 120.012 73.144 120.012 75.6176V81.2924C120.012 85.1629 117.302 86.2106 115.175 86.1233V86.4725C119.953 86.3561 120.012 90.0229 120.012 91.2742V98.4332C120.012 100.936 119.691 104.777 114.709 104.777H108.824C103.842 104.777 103.551 100.936 103.551 98.4332V92.351H110.66Z" fill="#0079C2"/>
<path d="M124.674 69.2734H141.135V104.777H134.026V73.6969H131.783V104.777H124.674V69.2734Z" fill="#0079C2"/>
<path d="M152.905 88.8006V73.6969H153.837C154.594 73.6969 155.148 74.3371 155.148 75.4721V87.0254C155.148 88.1604 154.594 88.8006 153.837 88.8006H152.905ZM145.796 104.777H152.905V92.7002H156.983C161.936 92.7002 162.257 88.8588 162.257 86.3561V75.6176C162.257 73.144 161.936 69.2734 156.983 69.2734H145.796V104.777Z" fill="#0079C2"/>
<path d="M176.271 99.0444C176.271 99.6555 175.804 100.208 175.134 100.208C174.726 100.208 174.027 99.9465 174.027 99.0444V74.8609C174.027 73.9297 174.726 73.6969 175.134 73.6969C175.804 73.6969 176.271 74.2498 176.271 74.8609V99.0444ZM166.918 98.4332C166.918 100.936 167.239 104.777 172.192 104.777H178.106C183.059 104.777 183.379 100.936 183.379 98.4332V75.6176C183.379 73.144 183.059 69.2734 178.106 69.2734H172.192C167.239 69.2734 166.918 73.144 166.918 75.6176V98.4332Z" fill="#0079C2"/>
<path d="M206.512 69.2734H215.776V104.777H208.668V82.5147H208.405L204.734 104.777H199.053L195.411 82.5147H195.149V104.777H188.041V69.2734H197.276L201.908 94.2426L206.512 69.2734Z" fill="#0079C2"/>
<path d="M58.9705 20.7312C56.7942 11.215 51.3403 3.47402 50.5886 2.22266C49.3999 3.99785 45.0502 10.8367 42.8389 18.4031C40.4237 26.8717 40.0682 34.3799 40.9015 41.7426C41.7289 49.1344 44.855 56.7299 44.855 56.7299C46.5156 60.6877 49.0037 64.9656 50.6236 67.061C52.998 63.9762 58.4548 54.7801 60.1563 42.7902C61.1031 36.0969 61.1439 30.2475 58.9705 20.7312ZM50.5886 64.6746C49.5194 62.6666 47.8587 58.8543 47.7014 52.9176C47.6606 47.2137 49.9535 42.2955 50.6236 41.277C51.2208 42.2955 53.1961 46.5735 53.4321 52.4229C53.5923 58.1268 51.6928 62.6375 50.5886 64.6746ZM58.3383 36.8826C58.2567 40.5203 57.8226 44.3617 57.269 46.6608C57.4672 42.703 56.9923 37.1445 56.0833 32.7793C55.1743 28.4432 52.6017 21.1678 50.5478 17.8211C48.6512 21.0223 46.3146 27.3082 45.091 32.7502C43.8615 38.1922 43.8265 44.7983 43.8265 46.7772C43.5002 45.1184 42.6845 39.1526 42.9146 33.1867C43.1069 28.2686 44.2606 23.1758 44.8929 20.8477C47.3052 13.0776 50.035 8.10117 50.5478 7.31542C51.0606 8.10117 54.4984 14.2416 56.2814 20.673C58.0557 27.1045 58.414 33.274 58.3383 36.8826Z" fill="#0079C2"/>
<path d="M54.2796 69.2738H37.7343V80.3615C37.7489 80.3615 37.7605 80.3325 37.7751 80.3325C41.6733 76.4328 47.9954 76.4328 51.8964 80.3325C55.7946 84.203 55.7946 90.518 51.8964 94.4176C51.879 94.4467 51.8615 94.4467 51.844 94.4758C51.8236 94.4758 51.8032 94.5049 51.7857 94.534C47.8963 98.3754 42.8153 100.296 37.7343 100.296C32.63 100.296 27.5257 98.3754 23.6334 94.4758C16.7694 87.6369 15.9565 77.0148 21.189 69.2738C21.8941 68.2262 22.7069 67.2367 23.6334 66.3055C27.5257 62.4059 32.63 60.4851 37.7343 60.4851V33.8281C18.1212 33.8281 2.22266 49.6885 2.22266 69.2738C2.22266 88.8592 18.1212 104.749 37.7343 104.749C47.9604 104.749 57.1727 100.413 63.6521 93.5154V69.2738H54.2796Z" fill="#0079C2"/>
</svg>
