<svg width="180" height="118" viewBox="0 0 180 118" fill="none" xmlns="http://www.w3.org/2000/svg">
<path d="M91.9758 85.7721H98.8033V48.6839H91.9758V85.7721ZM83.786 85.7721H90.6119V40.4414H83.786V85.7721ZM75.5977 85.7721H82.422V48.6839H75.5977V85.7721Z" fill="#D9BB6C"/>
<path d="M115.177 44.5564L108.358 51.4246V28.0525H115.183M106.992 52.7958L100.166 59.6687V19.8021H106.992M91.9762 47.3065H98.8053V11.58H91.9762V47.3065ZM83.7864 39.064H90.6108V3.34375H83.7864V39.064ZM75.5981 47.3065H82.4209V11.58H75.5981V47.3065ZM74.231 59.6671L67.4051 52.7958V19.8021H74.231M59.2168 28.0525V44.5548L66.0396 51.4262V28.0525" fill="black"/>
<path d="M21.2359 94.2344C24.6519 94.2344 27.4438 97.0002 27.4438 100.38V101.699C27.4438 104.575 25.4229 107.003 22.7215 107.666L28.3411 114.654H20.2262L14.7501 107.847H11.4339V114.654H3.31897V94.2359C3.23008 94.2359 12.8634 94.2344 21.2359 94.2344ZM11.4339 103.082H18.3285C19.3523 103.082 20.1918 102.253 20.1918 101.238V100.844C20.1918 99.8276 19.3538 98.9999 18.3285 98.9999H11.4339M61.5157 114.653H73.0124C76.5471 114.653 79.4388 111.744 79.4388 108.188C79.4388 104.629 76.5471 101.722 73.0124 101.722H64.977C64.3762 101.722 63.8831 101.227 63.8831 100.624V100.096C63.8831 99.4931 64.3747 98.9999 64.977 98.9999H70.2299C70.8307 98.9999 71.3223 99.4931 71.3223 100.096V100.358H79.4295C79.25 96.9597 76.4332 94.2347 73.0124 94.2347H61.5157C57.9841 94.2347 55.0908 97.1434 55.0908 100.701C55.0908 104.257 57.9841 107.165 61.5157 107.165H69.5542C70.155 107.165 70.6481 107.66 70.6481 108.265V108.791C70.6481 109.394 70.1534 109.89 69.5542 109.89H64.2997C63.6989 109.89 63.2073 109.394 63.2073 108.791V108.529H55.1002C55.2781 111.924 58.0965 114.653 61.5157 114.653ZM98.3748 114.653H106.488V94.2347H98.3748V106.003L88.9052 94.2347H80.7918V114.653H88.9052V102.886M131.431 114.653H139.547V107.165H151.707V101.722L139.547 101.687V99.68H153.229V94.2347H131.431M28.3458 104.415C28.3458 111.103 32.6889 114.653 41.2673 114.653C49.8473 114.653 54.1904 111.103 54.1904 104.415C54.1904 97.7261 49.8473 94.2347 41.2673 94.2347C32.6889 94.2347 28.3458 97.7261 28.3458 104.415ZM41.2673 98.9983C43.9047 98.9983 46.0598 100.844 46.0598 103.105V105.782C46.0598 108.042 43.9047 109.892 41.2673 109.892C38.6331 109.892 36.4764 108.042 36.4764 105.782V103.105C36.4764 100.844 38.6331 98.9983 41.2673 98.9983ZM108.069 114.653H130.53V109.209H116.182V107.165H128.341V101.722L116.182 101.687V99.68H129.864V94.2347H108.069M161.45 114.653H169.568V99.68H176.683V94.2363H154.131V99.68H161.45" fill="black"/>
</svg>
