<svg width="20" height="20" viewBox="0 0 20 20" fill="none" xmlns="http://www.w3.org/2000/svg">
<path d="M12.3571 6.46491L7.643 11.1789C7.31756 11.5043 7.31756 12.032 7.643 12.3574C7.96844 12.6829 8.49609 12.6829 8.8215 12.3574L13.5356 7.64341C14.5118 6.66711 14.5118 5.0842 13.5356 4.10788C12.5593 3.13157 10.9763 3.13157 10 4.10788L5.28598 8.82193C3.65879 10.4491 3.65879 13.0873 5.28598 14.7145C6.91316 16.3417 9.55134 16.3417 11.1785 14.7145L15.8926 10.0004L17.0711 11.1789L12.3571 15.893C10.079 18.171 6.38553 18.171 4.10747 15.893C1.82941 13.6149 1.82941 9.92151 4.10747 7.64341L8.8215 2.92937C10.4487 1.30219 13.0869 1.30219 14.7141 2.92937C16.3413 4.55656 16.3413 7.19474 14.7141 8.82193L10 13.536C9.02375 14.5123 7.4408 14.5123 6.46449 13.536C5.48818 12.5597 5.48818 10.9768 6.46449 10.0004L11.1785 5.2864L12.3571 6.46491Z" fill="currentColor"/>
</svg>
