<svg width="28" height="28" viewBox="0 0 28 28" fill="none" xmlns="http://www.w3.org/2000/svg">
<path fill-rule="evenodd" clip-rule="evenodd" d="M14.7256 23.9429C12.6647 23.9429 11.707 23.6552 10.0422 22.504C8.98924 23.799 5.65472 24.8111 5.50931 23.0796C5.50931 21.7798 5.20845 20.6815 4.86748 19.4824C4.46132 18.0051 4 16.36 4 13.9763C4 8.28308 8.88394 4 14.6705 4C20.462 4 24.9999 8.49411 24.9999 14.029C25.0093 16.6461 23.9327 19.1599 22.0064 21.0186C20.0802 22.8772 17.4617 23.929 14.7256 23.9429ZM14.8109 8.92098C11.9928 8.78189 9.79655 10.6476 9.31016 13.5734C8.90901 15.9955 9.62104 18.9452 10.2278 19.0987C10.5186 19.1658 11.2507 18.5999 11.707 18.1634C12.4615 18.662 13.3401 18.9614 14.2543 19.0315C15.6579 19.0961 17.032 18.6314 18.0812 17.7372C19.1305 16.843 19.771 15.5908 19.8653 14.2496C19.9201 12.9057 19.4213 11.5949 18.476 10.5993C17.5307 9.60362 16.2146 9.00268 14.8109 8.92578V8.92098Z" fill="currentColor"/>
</svg>
