<svg width="16" height="16" viewBox="0 0 16 16" fill="none" xmlns="http://www.w3.org/2000/svg">
<path d="M10 12C10.3682 12 10.6667 12.2985 10.6667 12.6667C10.6667 13.0349 10.3682 13.3333 10 13.3333H4C3.63181 13.3333 3.33333 13.0349 3.33333 12.6667C3.33333 12.2985 3.63181 12 4 12H10ZM13.3333 7.33333C13.7015 7.33333 14 7.63181 14 8C14 8.36819 13.7015 8.66667 13.3333 8.66667H2.66667C2.29848 8.66667 2 8.36819 2 8C2 7.63181 2.29848 7.33333 2.66667 7.33333H13.3333ZM12 2.66667C12.3682 2.66667 12.6667 2.96514 12.6667 3.33333C12.6667 3.70152 12.3682 4 12 4H6C5.63181 4 5.33333 3.70152 5.33333 3.33333C5.33333 2.96514 5.63181 2.66667 6 2.66667H12Z" fill="currentColor"/>
</svg>
