<svg width="68" height="68" viewBox="0 0 68 68" fill="none" xmlns="http://www.w3.org/2000/svg">
<path d="M12.9863 49.0765C10.0673 45.9777 8.5 42.5001 8.5 36.8626C8.5 26.9475 15.4601 18.0588 25.5867 13.6658L28.116 17.569C18.6661 22.682 16.8192 29.3138 16.081 33.4958C17.6025 32.7089 19.5941 32.4321 21.5467 32.6132C26.6591 33.0872 30.6884 37.2839 30.6884 42.5001C30.6884 47.9769 26.2485 52.4168 20.7716 52.4168C17.7313 52.4168 14.8239 51.027 12.9863 49.0765ZM41.3196 49.0765C38.4007 45.9777 36.8333 42.5001 36.8333 36.8626C36.8333 26.9475 43.7934 18.0588 53.92 13.6658L56.4493 17.569C46.9993 22.682 45.1526 29.3138 44.4142 33.4958C45.9357 32.7089 47.9275 32.4321 49.88 32.6132C54.9925 33.0872 59.0217 37.2839 59.0217 42.5001C59.0217 47.9769 54.5819 52.4168 49.1051 52.4168C46.0646 52.4168 43.1573 51.027 41.3196 49.0765Z" fill="currentColor"/>
</svg>
