<svg width="14" height="14" viewBox="0 0 14 14" fill="none" xmlns="http://www.w3.org/2000/svg">
<path d="M7.0013 12.8327C3.77964 12.8327 1.16797 10.221 1.16797 6.99935C1.16797 3.77769 3.77964 1.16602 7.0013 1.16602C10.2229 1.16602 12.8346 3.77769 12.8346 6.99935C12.8346 10.221 10.2229 12.8327 7.0013 12.8327ZM6.41797 8.74935V9.91602H7.58464V8.74935H6.41797ZM7.58464 7.78982C8.42796 7.53882 9.04297 6.75756 9.04297 5.83268C9.04297 4.7051 8.12889 3.79102 7.0013 3.79102C6.0108 3.79102 5.18502 4.49638 4.9989 5.4322L6.1431 5.66105C6.2229 5.25998 6.57681 4.95768 7.0013 4.95768C7.48454 4.95768 7.8763 5.34943 7.8763 5.83268C7.8763 6.31592 7.48454 6.70768 7.0013 6.70768C6.67913 6.70768 6.41797 6.96884 6.41797 7.29102V8.16602H7.58464V7.78982Z" fill="currentColor"/>
</svg>
