<svg width="28" height="28" viewBox="0 0 28 28" fill="none" xmlns="http://www.w3.org/2000/svg">
<path d="M2.50627 13.7775C8.6282 11.1103 12.7105 9.35194 14.753 8.50236C20.5849 6.07667 21.7967 5.6553 22.5865 5.64138C22.7603 5.63833 23.1488 5.68138 23.4003 5.88554C23.6127 6.05793 23.6712 6.29081 23.6992 6.45425C23.7272 6.6177 23.762 6.99003 23.7343 7.28095C23.4183 10.6015 22.0508 18.6598 21.3551 22.3789C21.0608 23.9526 20.4812 24.4802 19.92 24.5319C18.7005 24.6441 17.7744 23.7259 16.5933 22.9517C14.745 21.7401 13.7009 20.9859 11.9068 19.8036C9.83342 18.4373 11.1775 17.6863 12.3591 16.4591C12.6684 16.1379 18.0416 11.2506 18.1455 10.8073C18.1585 10.7518 18.1706 10.5451 18.0477 10.436C17.925 10.3268 17.7438 10.3642 17.613 10.3938C17.4277 10.4359 14.4749 12.3874 8.75507 16.2486C7.91697 16.824 7.15786 17.1045 6.47772 17.0898C5.7279 17.0736 4.28557 16.6658 3.21335 16.3174C1.89822 15.8898 0.852984 15.6638 0.944002 14.9378C0.991408 14.5597 1.51216 14.1729 2.50627 13.7775Z" fill="currentColor"/>
</svg>
