<svg width="1170" height="1311" viewBox="0 0 1170 1311" fill="none" xmlns="http://www.w3.org/2000/svg">
<path fill-rule="evenodd" clip-rule="evenodd" d="M1133.42 1014.09L877.479 1160.26L616.975 1311V1123.71L795.212 1018.65L968.881 918.16L1133.41 1014.09H1133.42ZM548.419 1311L292.479 1160.26L31.9747 1014.09L196.5 918.16L374.737 1018.65L548.407 1123.71V1311H548.419ZM0 954.702V356.292L164.526 452.222V858.76L0 954.69V954.702ZM31.9898 301.493L292.494 150.756L548.434 0.0181054V191.868L374.764 292.363L196.527 392.858L32.0019 301.502L31.9898 301.493ZM616.99 0.00907572L877.494 150.747L1133.43 301.484L968.908 392.84L795.239 292.345L617.002 191.85V0L616.99 0.00907572ZM1170 356.307V954.717L1005.47 858.787V452.249L1170 356.319V356.307Z" fill="black"/>
</svg>
