<svg width="322" height="70" viewBox="0 0 322 70" fill="none" xmlns="http://www.w3.org/2000/svg">
<g clip-path="url(#clip0_285_2063)">
<path d="M322 70H303.302L288.771 48.7269L274.167 70H255.468L279.367 35L255.468 0H274.167L288.771 21.2731L303.302 0H322L298.102 35L322 70ZM304.298 68.2033H318.57L295.889 35L318.57 1.79671H304.298L288.808 24.5072L273.208 1.79671H258.935L281.616 35L258.935 68.2033H273.208L288.808 45.4928L304.298 68.2033ZM249.42 70H197.419V0.0718686H249.42V15.9189H213.646V27.0585L243.74 26.9867V42.9415H213.646V54.0811L249.42 54.0092V69.9641V70ZM199.263 68.2033H247.576V55.8419L211.802 55.9138V41.1448H241.896V28.7834L211.802 28.8552V14.1581H247.576V1.86858H199.263V68.1674V68.2033ZM168.284 70H152.057V15.847H129.818V0.0718686L190.559 0V15.847H168.321V69.9641L168.284 70ZM153.901 68.2033H166.44V14.0503H188.678V1.79671L131.625 1.86858V14.0503H153.864V68.1674L153.901 68.2033ZM79.3291 70H63.1756V36.5092L48.2023 70H31.385L16.2641 36.4014V70H0V0H15.8953L39.7199 50.4158L63.5075 0H79.3291V70ZM65.0196 68.2033H77.4851V1.79671H64.6877L39.7567 54.692L14.7152 1.79671H1.844V68.2033H14.3832V32.1253L16.1535 31.7659L32.5651 68.2392H46.9852L63.2493 31.8737L65.0196 32.2331V68.2392V68.2033Z" fill="#ABABA9"/>
<path d="M112.189 57.0625L96.4785 48.2226V30.543L112.189 21.7031L127.9 30.543V48.2226L112.189 57.0625ZM98.3225 47.1805L112.189 54.9783L126.056 47.1805V31.5851L112.189 23.7873L98.3225 31.5851V47.1805Z" fill="#ABABA9"/>
</g>
<defs>
<clipPath id="clip0_285_2063">
<rect width="322" height="70" fill="white"/>
</clipPath>
</defs>
</svg>
