<svg width="18" height="18" viewBox="0 0 18 18" fill="none" xmlns="http://www.w3.org/2000/svg">
<g clip-path="url(#clip0_285_511)">
<path d="M1.79993 15.2065C1.79993 16.7476 3.05865 18.0012 4.59898 18.0012C6.14051 18.0012 7.39884 16.7476 7.39884 15.2065V2.16016H1.79993V15.2065ZM6.19952 3.36026V12.9195H2.95963V3.36026H6.19952Z" fill="#ABABA9"/>
<path d="M7.79707 0H1.37947C0.946167 0 0.594849 0.346565 0.594849 0.779871C0.594849 1.21357 0.946167 1.55974 1.37947 1.55974H7.79667C8.23037 1.55974 8.58169 1.21318 8.58169 0.779871C8.58169 0.346169 8.23037 0 7.79707 0Z" fill="#ABABA9"/>
<path d="M10.5997 15.2065C10.5997 16.7476 11.8585 18.0012 13.3992 18.0012C14.9399 18.0012 16.1986 16.7476 16.1986 15.2065V2.16016H10.5997V15.2065ZM15.0393 3.36026V9.99966H11.799V3.36026H15.0393Z" fill="#ABABA9"/>
<path d="M16.6209 0H10.2033C9.76959 0 9.41907 0.346565 9.41907 0.779871C9.41907 1.21357 9.77039 1.55974 10.2033 1.55974H16.6209C17.0542 1.55974 17.4051 1.21318 17.4051 0.779871C17.4063 0.346169 17.0542 0 16.6209 0Z" fill="#ABABA9"/>
</g>
<defs>
<clipPath id="clip0_285_511">
<rect width="18" height="18" fill="white"/>
</clipPath>
</defs>
</svg>
