<svg width="166" height="36" viewBox="0 0 166 36" fill="none" xmlns="http://www.w3.org/2000/svg">
<g clip-path="url(#clip0_2002_33)">
<path d="M166 36H156.361L148.87 25.0595L141.34 36H131.701L144.021 18L131.701 0H141.34L148.87 10.9405L156.361 0H166L153.68 18L166 36ZM156.874 35.076H164.232L152.539 18L164.232 0.924025H156.874L148.889 12.6037L140.846 0.924025H133.488L145.181 18L133.488 35.076H140.846L148.889 23.3963L156.874 35.076ZM128.583 36H101.775V0.036961H128.583V8.18686H110.141V13.9158L125.655 13.8789V22.0842H110.141V27.8131L128.583 27.7762V35.9815V36ZM102.726 35.076H127.632V28.7187L109.19 28.7556V21.1602H124.704V14.8029L109.19 14.8398V7.28131H127.632V0.960986H102.726V35.0575V35.076ZM86.755 36H78.3894V8.1499H66.9248V0.036961L98.2387 0V8.1499H86.774V35.9815L86.755 36ZM79.34 35.076H85.8044V7.22587H97.269V0.924025L67.8564 0.960986V7.22587H79.321V35.0575L79.34 35.076ZM40.8963 36H32.5688V18.7762L24.8496 36H16.1798L8.38461 18.7207V36H0V0H8.19448L20.4767 25.9281L32.7399 0H40.8963V36ZM33.5194 35.076H39.9457V0.924025H33.3483L20.4957 28.1273L7.58607 0.924025H0.950636V35.076H7.41496V16.5216L8.32757 16.3368L16.7882 35.0945H24.2222L32.6068 16.3922L33.5194 16.577V35.0945V35.076Z" fill="white"/>
<path d="M57.8367 29.3489L49.7373 24.8027V15.7103L57.8367 11.1641L65.9361 15.7103V24.8027L57.8367 29.3489ZM50.6879 24.2667L57.8367 28.277L64.9855 24.2667V16.2462L57.8367 12.2359L50.6879 16.2462V24.2667Z" fill="white"/>
</g>
<defs>
<clipPath id="clip0_2002_33">
<rect width="166" height="36" fill="white"/>
</clipPath>
</defs>
</svg>
