<svg width="0" height="0" class="hidden">
  <symbol fill="none" xmlns="http://www.w3.org/2000/svg" viewBox="0 0 24 24" id="ic_arr_hor">
    <path d="M10.8284 12.0007L15.7782 16.9504L14.364 18.3646L8 12.0007L14.364 5.63672L15.7782 7.05093L10.8284 12.0007Z" fill="currentColor"></path>
  </symbol>
  <symbol fill="none" xmlns="http://www.w3.org/2000/svg" viewBox="0 0 23 23" id="ic_arr_ver">
    <path d="M11.5005 14.3743L7.43457 10.3084L8.78986 8.95312L11.5005 11.6637L14.211 8.95312L15.5663 10.3084L11.5005 14.3743Z" fill="currentColor"></path>
  </symbol>
  <symbol fill="none" xmlns="http://www.w3.org/2000/svg" viewBox="0 0 14 14" id="ic_arrow_creator">
    <path d="M4.08594 4.08073L9.91927 9.91406M9.91927 4.66406V9.91406H4.66927" stroke="currentColor" stroke-width="1.5" stroke-linecap="round" stroke-linejoin="round"></path>
  </symbol>
  <symbol fill="none" xmlns="http://www.w3.org/2000/svg" viewBox="0 0 21 21" id="ic_arrow_diagonal">
    <path d="M4.93176 17.3066L3.69434 16.0694L13.7002 6.06348H8.81266V4.31348H16.6877V12.1885H14.9377V7.30088L4.93176 17.3066Z" fill="currentColor"></path>
  </symbol>
  <symbol fill="none" xmlns="http://www.w3.org/2000/svg" viewBox="0 0 18 18" id="ic_check">
    <path d="M9 16.5C13.1421 16.5 16.5 13.1421 16.5 9C16.5 4.85786 13.1421 1.5 9 1.5C4.85786 1.5 1.5 4.85786 1.5 9C1.5 13.1421 4.85786 16.5 9 16.5ZM13.0928 7.09283L8.25 11.9356L5.09467 8.78032L6.15533 7.71968L8.25 9.81435L12.0322 6.03217L13.0928 7.09283Z" fill="currentColor"></path>
  </symbol>
  <symbol fill="none" xmlns="http://www.w3.org/2000/svg" viewBox="0 0 24 24" id="ic_checkmark">
    <path d="M9.9997 15.1728L19.1921 5.98047L20.6063 7.39468L9.9997 18.0012L3.63574 11.6373L5.04996 10.2231L9.9997 15.1728Z" fill="currentColor"></path>
  </symbol>
  <symbol fill="none" xmlns="http://www.w3.org/2000/svg" viewBox="0 0 16 16" id="ic_close">
    <path d="M7.99984 7.05767L11.2997 3.75781L12.2425 4.70062L8.94264 8.00047L12.2425 11.3003L11.2997 12.2431L7.99984 8.94327L4.70002 12.2431L3.7572 11.3003L7.05704 8.00047L3.7572 4.70062L4.70002 3.75781L7.99984 7.05767Z" fill="currentColor"></path>
  </symbol>
  <symbol fill="none" xmlns="http://www.w3.org/2000/svg" viewBox="0 0 20 20" id="ic_download">
    <path d="M2.5 15.8332H17.5V17.4998H2.5V15.8332ZM10.8333 10.9762L15.8926 5.91692L17.0711 7.09544L10 14.1665L2.92893 7.09544L4.10744 5.91692L9.16667 10.9762V1.6665H10.8333V10.9762Z" fill="currentColor"></path>
  </symbol>
  <symbol fill="none" xmlns="http://www.w3.org/2000/svg" viewBox="0 0 20 20" id="ic_file">
    <path d="M12.3571 6.46491L7.643 11.1789C7.31756 11.5043 7.31756 12.032 7.643 12.3574C7.96844 12.6829 8.49609 12.6829 8.8215 12.3574L13.5356 7.64341C14.5118 6.66711 14.5118 5.0842 13.5356 4.10788C12.5593 3.13157 10.9763 3.13157 10 4.10788L5.28598 8.82193C3.65879 10.4491 3.65879 13.0873 5.28598 14.7145C6.91316 16.3417 9.55134 16.3417 11.1785 14.7145L15.8926 10.0004L17.0711 11.1789L12.3571 15.893C10.079 18.171 6.38553 18.171 4.10747 15.893C1.82941 13.6149 1.82941 9.92151 4.10747 7.64341L8.8215 2.92937C10.4487 1.30219 13.0869 1.30219 14.7141 2.92937C16.3413 4.55656 16.3413 7.19474 14.7141 8.82193L10 13.536C9.02375 14.5123 7.4408 14.5123 6.46449 13.536C5.48818 12.5597 5.48818 10.9768 6.46449 10.0004L11.1785 5.2864L12.3571 6.46491Z" fill="currentColor"></path>
  </symbol>
  <symbol fill="none" xmlns="http://www.w3.org/2000/svg" viewBox="0 0 28 28" id="ic_max">
    <path fill-rule="evenodd" clip-rule="evenodd" d="M14.7256 23.9429C12.6647 23.9429 11.707 23.6552 10.0422 22.504C8.98924 23.799 5.65472 24.8111 5.50931 23.0796C5.50931 21.7798 5.20845 20.6815 4.86748 19.4824C4.46132 18.0051 4 16.36 4 13.9763C4 8.28308 8.88394 4 14.6705 4C20.462 4 24.9999 8.49411 24.9999 14.029C25.0093 16.6461 23.9327 19.1599 22.0064 21.0186C20.0802 22.8772 17.4617 23.929 14.7256 23.9429ZM14.8109 8.92098C11.9928 8.78189 9.79655 10.6476 9.31016 13.5734C8.90901 15.9955 9.62104 18.9452 10.2278 19.0987C10.5186 19.1658 11.2507 18.5999 11.707 18.1634C12.4615 18.662 13.3401 18.9614 14.2543 19.0315C15.6579 19.0961 17.032 18.6314 18.0812 17.7372C19.1305 16.843 19.771 15.5908 19.8653 14.2496C19.9201 12.9057 19.4213 11.5949 18.476 10.5993C17.5307 9.60362 16.2146 9.00268 14.8109 8.92578V8.92098Z" fill="currentColor"></path>
  </symbol>
  <symbol fill="none" xmlns="http://www.w3.org/2000/svg" viewBox="0 0 16 16" id="ic_menu">
    <path d="M10 12C10.3682 12 10.6667 12.2985 10.6667 12.6667C10.6667 13.0349 10.3682 13.3333 10 13.3333H4C3.63181 13.3333 3.33333 13.0349 3.33333 12.6667C3.33333 12.2985 3.63181 12 4 12H10ZM13.3333 7.33333C13.7015 7.33333 14 7.63181 14 8C14 8.36819 13.7015 8.66667 13.3333 8.66667H2.66667C2.29848 8.66667 2 8.36819 2 8C2 7.63181 2.29848 7.33333 2.66667 7.33333H13.3333ZM12 2.66667C12.3682 2.66667 12.6667 2.96514 12.6667 3.33333C12.6667 3.70152 12.3682 4 12 4H6C5.63181 4 5.33333 3.70152 5.33333 3.33333C5.33333 2.96514 5.63181 2.66667 6 2.66667H12Z" fill="currentColor"></path>
  </symbol>
  <symbol fill="none" xmlns="http://www.w3.org/2000/svg" viewBox="0 0 24 24" id="ic_minus">
    <path d="M19 11H5V13H19V11Z" fill="currentColor"></path>
  </symbol>
  <symbol fill="none" xmlns="http://www.w3.org/2000/svg" viewBox="0 0 24 24" id="ic_plus">
    <path d="M11 11V5H13V11H19V13H13V19H11V13H5V11H11Z" fill="currentColor"></path>
  </symbol>
  <symbol fill="none" xmlns="http://www.w3.org/2000/svg" viewBox="0 0 68 68" id="ic_quote">
    <path d="M12.9863 49.0765C10.0673 45.9777 8.5 42.5001 8.5 36.8626C8.5 26.9475 15.4601 18.0588 25.5867 13.6658L28.116 17.569C18.6661 22.682 16.8192 29.3138 16.081 33.4958C17.6025 32.7089 19.5941 32.4321 21.5467 32.6132C26.6591 33.0872 30.6884 37.2839 30.6884 42.5001C30.6884 47.9769 26.2485 52.4168 20.7716 52.4168C17.7313 52.4168 14.8239 51.027 12.9863 49.0765ZM41.3196 49.0765C38.4007 45.9777 36.8333 42.5001 36.8333 36.8626C36.8333 26.9475 43.7934 18.0588 53.92 13.6658L56.4493 17.569C46.9993 22.682 45.1526 29.3138 44.4142 33.4958C45.9357 32.7089 47.9275 32.4321 49.88 32.6132C54.9925 33.0872 59.0217 37.2839 59.0217 42.5001C59.0217 47.9769 54.5819 52.4168 49.1051 52.4168C46.0646 52.4168 43.1573 51.027 41.3196 49.0765Z" fill="currentColor"></path>
  </symbol>
  <symbol fill="none" xmlns="http://www.w3.org/2000/svg" viewBox="0 0 16 18" id="ic_sep">
    <path d="M8 18L0 13.5V4.5L8 0L16 4.5V13.5L8 18ZM0.938967 12.9695L8 16.939L15.061 12.9695V5.03049L8 1.06098L0.938967 5.03049V12.9695Z" fill="currentColor"></path>
  </symbol>
  <symbol fill="none" xmlns="http://www.w3.org/2000/svg" viewBox="0 0 28 28" id="ic_tg">
    <path d="M2.50627 13.7775C8.6282 11.1103 12.7105 9.35194 14.753 8.50236C20.5849 6.07667 21.7967 5.6553 22.5865 5.64138C22.7603 5.63833 23.1488 5.68138 23.4003 5.88554C23.6127 6.05793 23.6712 6.29081 23.6992 6.45425C23.7272 6.6177 23.762 6.99003 23.7343 7.28095C23.4183 10.6015 22.0508 18.6598 21.3551 22.3789C21.0608 23.9526 20.4812 24.4802 19.92 24.5319C18.7005 24.6441 17.7744 23.7259 16.5933 22.9517C14.745 21.7401 13.7009 20.9859 11.9068 19.8036C9.83342 18.4373 11.1775 17.6863 12.3591 16.4591C12.6684 16.1379 18.0416 11.2506 18.1455 10.8073C18.1585 10.7518 18.1706 10.5451 18.0477 10.436C17.925 10.3268 17.7438 10.3642 17.613 10.3938C17.4277 10.4359 14.4749 12.3874 8.75507 16.2486C7.91697 16.824 7.15786 17.1045 6.47772 17.0898C5.7279 17.0736 4.28557 16.6658 3.21335 16.3174C1.89822 15.8898 0.852984 15.6638 0.944002 14.9378C0.991408 14.5597 1.51216 14.1729 2.50627 13.7775Z" fill="currentColor"></path>
  </symbol>
  <symbol fill="none" xmlns="http://www.w3.org/2000/svg" viewBox="0 0 14 14" id="ic_tooltip">
    <path d="M7.0013 12.8327C3.77964 12.8327 1.16797 10.221 1.16797 6.99935C1.16797 3.77769 3.77964 1.16602 7.0013 1.16602C10.2229 1.16602 12.8346 3.77769 12.8346 6.99935C12.8346 10.221 10.2229 12.8327 7.0013 12.8327ZM6.41797 8.74935V9.91602H7.58464V8.74935H6.41797ZM7.58464 7.78982C8.42796 7.53882 9.04297 6.75756 9.04297 5.83268C9.04297 4.7051 8.12889 3.79102 7.0013 3.79102C6.0108 3.79102 5.18502 4.49638 4.9989 5.4322L6.1431 5.66105C6.2229 5.25998 6.57681 4.95768 7.0013 4.95768C7.48454 4.95768 7.8763 5.34943 7.8763 5.83268C7.8763 6.31592 7.48454 6.70768 7.0013 6.70768C6.67913 6.70768 6.41797 6.96884 6.41797 7.29102V8.16602H7.58464V7.78982Z" fill="currentColor"></path>
  </symbol>
</svg>